<svg xmlns="http://www.w3.org/2000/svg" xmlns:xlink="http://www.w3.org/1999/xlink" width="423" height="135" version="1.1" viewBox="0 0 423 135" xml:space="preserve"><desc>Created with Fabric.js 3.6.6</desc><g><g><g><path style="stroke:none;stroke-width:1;stroke-dasharray:none;stroke-linecap:butt;stroke-dashoffset:0;stroke-linejoin:miter;stroke-miterlimit:4;fill:#644d3f;fill-rule:nonzero;opacity:1" stroke-linecap="round" d="m 281.375 335.34375 l -84.3125 24.53125 l -16.15625 20.4375 l 73.375 25.59375 l 21.28125 -25.8125 l 5.59375 2.375 l 5.59375 -2.375 l 22.15625 26.46875 l 72.71875 -25.8125 l -17 -22.15625 l -83.25 -23.25 z m 0 6.6875 l 58.96875 17.40625 L 281.375 376 l -59.59375 -17.21875 l 59.59375 -16.75 z m 4.625 51.1875 l -0.21875 77.875 l 78.3125 -32.0625 l 0.21875 -43.65625 l -58.71875 19.34375 l -17.21875 -21.5 l -2.375 0 z M 274.71875 393.4375 L 257.5 414.9375 L 198.78125 395.59375 L 199 439.25 l 78.3125 32.0625 l -0.21875 -77.875 l -2.375 0 z" transform="matrix(1 0 0 1 100.36 67.98) matrix(1 0 0 1 0 0) translate(-281.27, -403.33)"/></g></g></g><g><text font-family="'Open Sans', sans-serif" font-size="42" font-style="normal" font-weight="normal" xml:space="preserve" style="stroke:none;stroke-width:1;stroke-dasharray:none;stroke-linecap:butt;stroke-dashoffset:0;stroke-linejoin:miter;stroke-miterlimit:4;fill:#fff;fill-rule:nonzero;opacity:1;white-space:pre" transform="matrix(4.52 0 0 4.52 316.86 70.23)"><tspan x="-24.69" y="5.65" style="stroke-width:1;font-family:'Open Sans',sans-serif;font-size:18px;font-style:normal;font-weight:700;fill:#fff">Stash</tspan></text></g></svg>